<svg xmlns="http://www.w3.org/2000/svg" viewBox="0 0 56.21 162.18"><defs><style>.cls-1{fill:#e2a66f;}.cls-1,.cls-2{stroke:#000;stroke-linecap:round;stroke-linejoin:round;stroke-width:2px;}.cls-2{fill:#bd614a;}</style></defs><title>body</title><g id="Ebene_2" data-name="Ebene 2"><g id="Ebene_1-2" data-name="Ebene 1"><path class="cls-1" d="M28.1,1h0a27.1,27.1,0,0,1,27.1,27.1V89.22A10.63,10.63,0,0,1,44.58,99.85H11.63A10.63,10.63,0,0,1,1,89.22V28.1A27.1,27.1,0,0,1,28.1,1Z"/><rect class="cls-2" x="9.82" y="77.52" width="15.33" height="83.43" rx="7.67" transform="translate(2.76 -0.37) rotate(1.33)"/><rect class="cls-2" x="29.92" y="77.52" width="15.33" height="83.43" rx="7.67" transform="translate(2.77 -0.84) rotate(1.33)"/><path class="cls-1" d="M9.77,146.5l.19,6.84a7.69,7.69,0,0,0,7.49,7.84h0a7.69,7.69,0,0,0,7.84-7.49l-.2-6.84Z"/><path class="cls-1" d="M29.86,146.5l.2,6.84a7.69,7.69,0,0,0,7.48,7.84h0a7.68,7.68,0,0,0,7.84-7.49l-.19-6.84Z"/></g></g></svg>