<svg xmlns="http://www.w3.org/2000/svg" viewBox="0 0 130.8 91.17"><defs><style>.cls-1{fill:#efefef;stroke:#000;stroke-linecap:round;stroke-linejoin:round;stroke-width:2px;}</style></defs><title>boom</title><g id="Ebene_2" data-name="Ebene 2"><g id="Ebene_1-2" data-name="Ebene 1"><path class="cls-1" d="M117.73,36.19a15.69,15.69,0,0,0-22.22-21,21.47,21.47,0,0,0-39.74-1.62,15.69,15.69,0,0,0-30,5.82,13.57,13.57,0,0,0-2.49-.23,14,14,0,0,0-11.4,22.22A15.69,15.69,0,1,0,22.47,70.9v.28A19,19,0,0,0,59.3,77.69a19.81,19.81,0,0,0,37-4.46,21.47,21.47,0,1,0,21.48-37Z"/></g></g></svg>