<svg xmlns="http://www.w3.org/2000/svg" viewBox="0 0 68.38 157.83"><defs><style>.cls-1{fill:#fff;}.cls-1,.cls-2,.cls-3,.cls-4,.cls-5{stroke:#000;stroke-linecap:round;stroke-linejoin:round;stroke-width:2px;}.cls-2{fill:#d64541;}.cls-3{fill:#49844d;}.cls-4{fill:#bd614a;}.cls-5{fill:#e2a66f;}</style></defs><title>deer__arm</title><g id="Ebene_2" data-name="Ebene 2"><g id="Ebene_1-2" data-name="Ebene 1"><rect class="cls-1" x="31.32" y="118.57" width="35.07" height="9.57" transform="translate(170.83 71.14) rotate(88.43)"/><circle class="cls-2" cx="49.51" cy="147.26" r="9.57"/><path class="cls-3" d="M65.74,99s.17,6.38-6.2,6.55l-28.69.78L29.72,64.87A15.94,15.94,0,1,1,61.59,64Z"/><path class="cls-3" d="M29.63,61.68S19,66.17,8.2,61.25C5,59.78.92,61.64,1,64.55L1.21,72s.17,6.37,8.37,6.15l20.49-.56Z"/><rect class="cls-2" x="22.18" y="76.15" width="6.38" height="9.57" transform="translate(105.58 53.36) rotate(88.43)"/><rect class="cls-2" x="31.7" y="75.59" width="28.7" height="6.38" rx="3.19" transform="translate(123.53 30.59) rotate(88.43)"/><circle class="cls-2" cx="45.57" cy="62.25" r="4.72"/><rect class="cls-1" x="32.3" y="112.2" width="35.07" height="3.19" rx="1" transform="translate(102.76 226.18) rotate(178.43)"/><rect class="cls-1" x="38.67" y="123.08" width="22.32" height="3.19" rx="1" transform="translate(103.05 247.95) rotate(178.43)"/><rect class="cls-4" x="9.07" y="1" width="14.4" height="82.8" rx="7.2"/><path class="cls-5" d="M23.47,69.4v7.2a7.22,7.22,0,0,1-7.2,7.2h0a7.22,7.22,0,0,1-7.2-7.2V69.4Z"/></g></g></svg>