<svg xmlns="http://www.w3.org/2000/svg" viewBox="0 0 439.25 21.25"><defs><style>.cls-1{fill:#fff;}</style></defs><title>enter</title><g id="Ebene_2" data-name="Ebene 2"><g id="Ebene_1-2" data-name="Ebene 1"><path class="cls-1" d="M.5,20.75V.5H18V3.25h2.75V12.5H18v2.75H7v5.5ZM14.25,11.5V4.25H7V11.5Z"/><path d="M17.5,1V3.75h2.75V12H17.5v2.75H6.5v5.5H1V1H17.5M6.5,12h8.25V3.75H6.5V12m12-12H0V21.25H7.5v-5.5h11V13h2.75V2.75H18.5V0ZM7.5,4.75h6.25V11H7.5V4.75Z"/><polygon class="cls-1" points="25.25 20.75 25.25 6 31.75 6 31.75 8.75 33.5 8.75 33.5 6 42.75 6 42.75 9.75 34.5 9.75 34.5 12.5 31.75 12.5 31.75 20.75 25.25 20.75"/><path d="M42.25,6.5V9.25H34V6.5h8.25m-11,0V9.25H34V12H31.25v8.25h-5.5V6.5h5.5m12-1H33V8.25h-.75V5.5h-7.5V21.25h7.5V13H35V10.25h8.25V5.5Z"/><path class="cls-1" d="M47.25,20.75V18H44.5V8.75h2.75V6H62V8.75h2.75v6.5H51V17H62v3.75Zm11-9.25V9.75H51V11.5Z"/><path d="M61.5,6.5V9.25h2.75v5.5H50.5V17.5h11v2.75H47.75V17.5H45V9.25h2.75V6.5H61.5M50.5,12h8.25V9.25H50.5V12m12-6.5H46.75V8.25H44V18.5h2.75v2.75H62.5V16.5h-11v-.75H65.25V8.25H62.5V5.5Zm-11,4.75h6.25V11H51.5v-.75Z"/><polygon class="cls-1" points="66.5 20.75 66.5 17 80.25 17 80.25 15.25 69.25 15.25 69.25 12.5 66.5 12.5 66.5 8.75 69.25 8.75 69.25 6 84 6 84 9.75 73 9.75 73 11.5 84 11.5 84 14.25 86.75 14.25 86.75 18 84 18 84 20.75 66.5 20.75"/><path d="M83.5,6.5V9.25h-11V12h11v2.75h2.75V17.5H83.5v2.75H67V17.5H80.75V14.75h-11V12H67V9.25h2.75V6.5H83.5m1-1H68.75V8.25H66V13h2.75v2.75h11v.75H66v4.75H84.5V18.5h2.75V13.75H84.5V11h-11v-.75h11V5.5Z"/><polygon class="cls-1" points="88.5 20.75 88.5 17 102.25 17 102.25 15.25 91.25 15.25 91.25 12.5 88.5 12.5 88.5 8.75 91.25 8.75 91.25 6 106 6 106 9.75 95 9.75 95 11.5 106 11.5 106 14.25 108.75 14.25 108.75 18 106 18 106 20.75 88.5 20.75"/><path d="M105.5,6.5V9.25h-11V12h11v2.75h2.75V17.5H105.5v2.75H89V17.5h13.75V14.75h-11V12H89V9.25h2.75V6.5H105.5m1-1H90.75V8.25H88V13h2.75v2.75h11v.75H88v4.75h18.5V18.5h2.75V13.75H106.5V11h-11v-.75h11V5.5Z"/><polygon class="cls-1" points="132.5 20.75 132.5 0.5 152.75 0.5 152.75 4.25 139 4.25 139 8.75 150 8.75 150 12.5 139 12.5 139 17 152.75 17 152.75 20.75 132.5 20.75"/><path d="M152.25,1V3.75H138.5v5.5h11V12h-11v5.5h13.75v2.75H133V1h19.25m1-1H132V21.25h21.25V16.5H139.5V13h11V8.25h-11V4.75h13.75V0Z"/><polygon class="cls-1" points="168.25 20.75 168.25 15.25 165.5 15.25 165.5 12.5 162.75 12.5 162.75 9.75 161 9.75 161 20.75 154.5 20.75 154.5 0.5 161 0.5 161 3.25 163.75 3.25 163.75 6 166.5 6 166.5 8.75 168.25 8.75 168.25 0.5 174.75 0.5 174.75 20.75 168.25 20.75"/><path d="M174.25,1V20.25h-5.5v-5.5H166V12h-2.75V9.25H160.5v11H155V1h5.5V3.75h2.75V6.5H166V9.25h2.75V1h5.5m1-1h-7.5V8.25H167V5.5h-2.75V2.75H161.5V0H154V21.25h7.5v-11h.75V13H165v2.75h2.75v5.5h7.5V0Z"/><polygon class="cls-1" points="184.75 20.75 184.75 4.25 179.25 4.25 179.25 0.5 196.75 0.5 196.75 4.25 191.25 4.25 191.25 20.75 184.75 20.75"/><path d="M196.25,1V3.75h-5.5v16.5h-5.5V3.75h-5.5V1h16.5m1-1h-18.5V4.75h5.5v16.5h7.5V4.75h5.5V0Z"/><polygon class="cls-1" points="198.5 20.75 198.5 0.5 218.75 0.5 218.75 4.25 205 4.25 205 8.75 216 8.75 216 12.5 205 12.5 205 17 218.75 17 218.75 20.75 198.5 20.75"/><path d="M218.25,1V3.75H204.5v5.5h11V12h-11v5.5h13.75v2.75H199V1h19.25m1-1H198V21.25h21.25V16.5H205.5V13h11V8.25h-11V4.75h13.75V0Z"/><path class="cls-1" d="M231.5,20.75V18h-2.75V15.25H227v5.5h-6.5V.5H238V3.25h2.75V12.5h-5.5v1.75H238V17h2.75v3.75Zm0-9.25V8.75h2.75V4.25H227V11.5Z"/><path d="M237.5,1V3.75h2.75V12h-5.5v2.75h2.75V17.5h2.75v2.75H232V17.5h-2.75V14.75H226.5v5.5H221V1h16.5m-11,11H232V9.25h2.75V3.75H226.5V12m12-12H220V21.25h7.5v-5.5h.75V18.5H231v2.75h10.25V16.5H238.5V13.75h-2.75V13h5.5V2.75H238.5V0Zm-11,4.75h6.25v3.5H231V11h-3.5V4.75Z"/><polygon class="cls-1" points="272.75 20.75 272.75 9.75 267.25 9.75 267.25 6 272.75 6 272.75 0.5 279.25 0.5 279.25 6 284.75 6 284.75 9.75 279.25 9.75 279.25 20.75 272.75 20.75"/><path d="M278.75,1V6.5h5.5V9.25h-5.5v11h-5.5v-11h-5.5V6.5h5.5V1h5.5m1-1h-7.5V5.5h-5.5v4.75h5.5v11h7.5v-11h5.5V5.5h-5.5V0Z"/><path class="cls-1" d="M289.25,20.75V18H286.5V8.75h2.75V6H304V8.75h2.75V18H304v2.75Zm11-3.75V9.75H293V17Z"/><path d="M303.5,6.5V9.25h2.75V17.5H303.5v2.75H289.75V17.5H287V9.25h2.75V6.5H303.5m-11,11h8.25V9.25H292.5V17.5m12-12H288.75V8.25H286V18.5h2.75v2.75H304.5V18.5h2.75V8.25H304.5V5.5Zm-11,4.75h6.25V16.5H293.5V10.25Z"/><polygon class="cls-1" points="330.5 20.75 330.5 17 344.25 17 344.25 15.25 333.25 15.25 333.25 12.5 330.5 12.5 330.5 8.75 333.25 8.75 333.25 6 348 6 348 9.75 337 9.75 337 11.5 348 11.5 348 14.25 350.75 14.25 350.75 18 348 18 348 20.75 330.5 20.75"/><path d="M347.5,6.5V9.25h-11V12h11v2.75h2.75V17.5H347.5v2.75H331V17.5h13.75V14.75h-11V12H331V9.25h2.75V6.5H347.5m1-1H332.75V8.25H330V13h2.75v2.75h11v.75H330v4.75h18.5V18.5h2.75V13.75H348.5V11h-11v-.75h11V5.5Z"/><polygon class="cls-1" points="360.75 20.75 360.75 9.75 355.25 9.75 355.25 6 360.75 6 360.75 0.5 367.25 0.5 367.25 6 372.75 6 372.75 9.75 367.25 9.75 367.25 20.75 360.75 20.75"/><path d="M366.75,1V6.5h5.5V9.25h-5.5v11h-5.5v-11h-5.5V6.5h5.5V1h5.5m1-1h-7.5V5.5h-5.5v4.75h5.5v11h7.5v-11h5.5V5.5h-5.5V0Z"/><path class="cls-1" d="M377.25,20.75V18H374.5V14.25h2.75V11.5h11V9.75h-11V6H392V8.75h2.75v12Zm11-3.75V15.25H381V17Z"/><path d="M391.5,6.5V9.25h2.75v11h-16.5V17.5H375V14.75h2.75V12h11V9.25h-11V6.5H391.5m-11,11h8.25V14.75H380.5V17.5m12-12H376.75v4.75h11V11h-11v2.75H374V18.5h2.75v2.75h18.5v-13H392.5V5.5Zm-11,10.25h6.25v.75H381.5v-.75Z"/><polygon class="cls-1" points="399.25 20.75 399.25 6 405.75 6 405.75 8.75 407.5 8.75 407.5 6 416.75 6 416.75 9.75 408.5 9.75 408.5 12.5 405.75 12.5 405.75 20.75 399.25 20.75"/><path d="M416.25,6.5V9.25H408V6.5h8.25m-11,0V9.25H408V12h-2.75v8.25h-5.5V6.5h5.5m12-1H407V8.25h-.75V5.5h-7.5V21.25h7.5V13H409V10.25h8.25V5.5Z"/><polygon class="cls-1" points="426.75 20.75 426.75 9.75 421.25 9.75 421.25 6 426.75 6 426.75 0.5 433.25 0.5 433.25 6 438.75 6 438.75 9.75 433.25 9.75 433.25 20.75 426.75 20.75"/><path d="M432.75,1V6.5h5.5V9.25h-5.5v11h-5.5v-11h-5.5V6.5h5.5V1h5.5m1-1h-7.5V5.5h-5.5v4.75h5.5v11h7.5v-11h5.5V5.5h-5.5V0Z"/></g></g></svg>