<svg xmlns="http://www.w3.org/2000/svg" viewBox="0 0 76.22 99.82"><defs><style>.cls-1{fill:#f3581e;}.cls-1,.cls-2,.cls-3{stroke:#000;stroke-miterlimit:10;stroke-width:2px;}.cls-2{fill:#f98c25;}.cls-3{fill:#fef204;}</style></defs><title>fire</title><g id="Ebene_2" data-name="Ebene 2"><g id="Ebene_1-2" data-name="Ebene 1"><path class="cls-1" d="M12.15,29s0,19.9,5,17.41S12.15,19,44.48,1.62c0,0,2.49,37.3,14.92,42.28,0,0,0-17.41,12.44-19.9,0,0-7.46,14.92,0,34.82s5,37.3-32.34,39.79S-10.24,81.2,12.15,29Z"/><path class="cls-2" d="M27.51,49.08s5,0,5,7.46c0,0,12.43-19.9,7.46-27.36A81.35,81.35,0,0,1,57.36,78.92s5-2.49,5-7.46c0,0,7.46,27.36-24.87,27.36S14,76.17,15.08,74C17.56,69,30,64,27.51,49.08Z"/><path class="cls-3" d="M36.83,98.66s-9.95,2.49-9.95-12.43,12.44-10,14.92-22.39C41.8,63.84,61.7,96.17,36.83,98.66Z"/></g></g></svg>