<svg xmlns="http://www.w3.org/2000/svg" viewBox="0 0 507.88 51.88"><defs><style>.cls-1{fill:#fff;stroke:#000;stroke-miterlimit:10;stroke-width:2px;}</style></defs><title>gameOver</title><g id="Ebene_2" data-name="Ebene 2"><g id="Ebene_1-2" data-name="Ebene 1"><path class="cls-1" d="M15.25,50.88V43.75H8.12V36.62H1V15.25H8.12V8.12h7.13V1H50.88V8.12H22.38v7.13H15.25V36.62h7.13v7.13H36.62V29.5H29.5V22.38H50.88v28.5Z"/><path class="cls-1" d="M65.12,50.88V43.75H58V36.62h7.12V29.5h28.5V22.38H65.12V15.25h35.63v7.13h7.13v28.5Zm7.13-7.13H93.62V36.62H72.25Z"/><path class="cls-1" d="M115,50.88V15.25h42.75v7.13h7.13v28.5H150.62V22.38H143.5v28.5H129.25V22.38h-7.13v28.5Z"/><path class="cls-1" d="M179.12,50.88V43.75H172V22.38h7.12V15.25h35.63v7.13h7.13V36.62H186.25v7.13h28.5v7.13Zm7.13-21.38h21.37V22.38H186.25Z"/><path class="cls-1" d="M293.12,50.88V43.75H286V8.12h7.12V1h35.63V8.12h7.13V43.75h-7.13v7.13Zm7.13-7.13h21.37V8.12H300.25Z"/><path class="cls-1" d="M364.38,50.88V43.75h-7.13V36.62h-7.13V15.25h14.26V36.62h14.24V15.25h14.26V36.62h-7.13v7.13h-7.13v7.13Z"/><path class="cls-1" d="M407.12,50.88V43.75H400V22.38h7.12V15.25h35.63v7.13h7.13V36.62H414.25v7.13h28.5v7.13Zm7.13-21.38h21.37V22.38H414.25Z"/><path class="cls-1" d="M478.38,22.38h7.12V29.5h-7.12V50.88H464.12V15.25h14.26Zm28.5-7.13v7.13H485.5V15.25Z"/></g></g></svg>