<svg xmlns="http://www.w3.org/2000/svg" viewBox="0 0 46.82 73.86"><defs><style>.cls-1{fill:#bd614a;stroke:#000;stroke-linecap:round;stroke-linejoin:round;stroke-width:2px;}</style></defs><title>geweih</title><g id="Ebene_2" data-name="Ebene 2"><g id="Ebene_1-2" data-name="Ebene 1"><path class="cls-1" d="M1,64.11s4.38-8.76,0-17.52c0,0,0-4.37,4.38-4.37S9.76,51,9.76,51s0,8.76,4.37,4.38,4.38-8.76,0-17.51S9.76,24.7,9.76,24.7s0-8.75,4.37-4.37,4.38,8.75,4.38,8.75,0,4.38,4.38,4.38,4.38-8.76,4.38-8.76,0-13.13-8.76-17.51,0-8.75,4.38-4.38S40.4,16,31.65,37.84s4.37,0,4.37,0,4.38-13.14,8.76-8.76S40.4,55.35,5.38,72.86"/></g></g></svg>