<svg xmlns="http://www.w3.org/2000/svg" viewBox="0 0 46.82 73.86"><defs><style>.cls-1{fill:#bd614a;stroke:#000;stroke-linecap:round;stroke-linejoin:round;stroke-width:2px;}</style></defs><title>geweih--left</title><g id="Ebene_2" data-name="Ebene 2"><g id="Ebene_1-2" data-name="Ebene 1"><path class="cls-1" d="M45.82,64.11s-4.38-8.76,0-17.52c0,0,0-4.37-4.38-4.37S37.06,51,37.06,51s0,8.76-4.37,4.38-4.38-8.76,0-17.51S37.06,24.7,37.06,24.7s0-8.75-4.37-4.37-4.38,8.75-4.38,8.75,0,4.38-4.38,4.38-4.38-8.76-4.38-8.76,0-13.13,8.76-17.51,0-8.75-4.38-4.38S6.42,16,15.17,37.84s-4.37,0-4.37,0S6.42,24.7,2,29.08s4.38,26.27,39.4,43.78"/></g></g></svg>