<svg xmlns="http://www.w3.org/2000/svg" viewBox="0 0 58.92 112.18"><defs><style>.cls-1{fill:#e2a66f;}.cls-1,.cls-2,.cls-3,.cls-4,.cls-5,.cls-6{stroke:#000;stroke-linecap:round;stroke-linejoin:round;stroke-width:2px;}.cls-2{fill:#fff;}.cls-3{fill:#49844d;}.cls-4{fill:#d64541;}.cls-5{fill:#e0b699;}.cls-6{fill:none;}</style></defs><title>head_1</title><g id="Ebene_2" data-name="Ebene 2"><g id="Ebene_1-2" data-name="Ebene 1"><rect class="cls-1" x="1" y="22.89" width="56.92" height="78.81" rx="23.4"/><rect class="cls-2" x="16.32" y="62.29" width="8.76" height="13.13" rx="3.6"/><rect class="cls-2" x="33.84" y="62.29" width="8.76" height="13.13" rx="3.6"/><path class="cls-3" d="M3.19,40.4C3.19,24.69,15,12,29.46,12S55.73,24.69,55.73,40.4"/><rect class="cls-4" x="1" y="40.4" width="56.92" height="8.76" rx="3.6"/><ellipse class="cls-5" cx="29.46" cy="91.12" rx="24.08" ry="20.07"/><ellipse class="cls-4" cx="29.46" cy="87.81" rx="10.48" ry="8.73"/><path class="cls-6" d="M16.32,97.32s4.38,4.38,13.14,4.38,13.13-4.38,13.13-4.38"/><circle class="cls-4" cx="28.52" cy="9.76" r="8.76"/><rect x="18.98" y="66.59" width="3.53" height="6.03" rx="1.25"/><rect x="36.57" y="66.59" width="3.53" height="6.03" rx="1.25"/></g></g></svg>