<svg xmlns="http://www.w3.org/2000/svg" viewBox="0 0 500.2 120.01"><defs><style>.cls-1{fill:#fff;}</style></defs><title>logo</title><g id="Ebene_2" data-name="Ebene 2"><g id="Ebene_1-2" data-name="Ebene 1"><polygon class="cls-1" points="14.98 51.92 14.98 44.93 7.99 44.93 7.99 37.94 1 37.94 1 14.98 7.99 14.98 7.99 7.99 14.98 7.99 14.98 1 44.93 1 44.93 7.99 51.92 7.99 51.92 16.98 35.94 16.98 35.94 9.99 23.97 9.99 23.97 16.98 16.98 16.98 16.98 35.94 23.97 35.94 23.97 42.93 35.94 42.93 35.94 35.94 51.92 35.94 51.92 44.93 44.93 44.93 44.93 51.92 14.98 51.92"/><path d="M43.93,2V9h7v7h-14V9H23v7H16v21h7v7h14v-7h14v7h-7v7H16v-7H9v-7H2V16H9V9h7V2h28m2-2H14V7H7v7H0v25H7v7h7v7h32v-7h7v-11h-18v7H25v-7H18V18h7V11h10v7h18V7h-7V0Z"/><polygon class="cls-1" points="91.85 51.92 91.85 23.97 72.89 23.97 72.89 51.92 56.91 51.92 56.91 1 72.89 1 72.89 14.98 100.84 14.98 100.84 21.97 107.83 21.97 107.83 51.92 91.85 51.92"/><path d="M71.89,2V16h28v7h7v28h-14V23h-21v28h-14V2h14m2-2h-18V52.92h18V25h17v28h18V21h-7V14H73.89V0Z"/><polygon class="cls-1" points="119.81 51.92 119.81 14.98 135.78 14.98 135.78 21.97 140.77 21.97 140.77 14.98 163.74 14.98 163.74 23.97 142.77 23.97 142.77 30.95 135.78 30.95 135.78 51.92 119.81 51.92"/><path d="M162.74,16v7h-21V16h21m-28,0v7h7v7h-7v21h-14V16h14m30-2h-25v7h-3V14h-18V52.92h18V32h7V25h21V14Z"/><path class="cls-1" d="M175.72,51.92v-9h14V24h-7V15h23v28h14v9Zm14-41.93V1h16v9Z"/><path d="M204.67,2V9h-14V2h14m0,14v28h14v7H176.72v-7h14V23h-7V16h21m2-16h-18V11h18V0Zm0,14h-25V25h7v17h-14v11h45.93v-11h-14V14Z"/><polygon class="cls-1" points="224.64 51.92 224.64 42.93 259.58 42.93 259.58 37.94 231.63 37.94 231.63 30.95 224.64 30.95 224.64 21.97 231.63 21.97 231.63 14.98 268.57 14.98 268.57 23.97 240.62 23.97 240.62 28.95 268.57 28.95 268.57 35.94 275.56 35.94 275.56 44.93 268.57 44.93 268.57 51.92 224.64 51.92"/><path d="M267.57,16v7H239.62v7h27.95v7h7v7h-7v7H225.64v-7h34.94v-7H232.63V30h-7V23h7V16h34.94m2-2H230.63v7h-7V32h7v7h27.95v3H223.64v11h45.93v-7h7v-11h-7V28H241.62V25h27.95V14Z"/><polygon class="cls-1" points="301.51 51.92 301.51 23.97 287.54 23.97 287.54 14.98 301.51 14.98 301.51 1 317.49 1 317.49 14.98 331.47 14.98 331.47 23.97 317.49 23.97 317.49 51.92 301.51 51.92"/><path d="M316.49,2V16h14v7h-14v28h-14V23h-14V16h14V2h14m2-2h-18V14h-14V25h14v28h18V25h14V14h-14V0Z"/><polygon class="cls-1" points="371.4 51.92 371.4 23.97 366.41 23.97 366.41 51.92 350.44 51.92 350.44 23.97 345.45 23.97 345.45 51.92 336.46 51.92 336.46 14.98 380.39 14.98 380.39 21.97 387.38 21.97 387.38 51.92 371.4 51.92"/><path d="M379.39,16v7h7v28h-14V23h-7v28h-14V23h-7v28h-7V16h41.93m2-2H335.46V52.92h11V25h3v28h18V25h3v28h18V21h-7V14Z"/><path class="cls-1" d="M399.36,51.92v-7h-7v-9h7V29h27.95V24H399.36V15H436.3v7h7v30Zm27.95-9v-5h-19v5Z"/><path d="M435.3,16v7h7v28H400.36v-7h-7v-7h7V30h27.95V23H400.36V16H435.3m-28,28h21v-7h-21v7M437.3,14H398.36V25h27.95v3H398.36v7h-7v11h7v7h45.93V21h-7V14Zm-28,25h17v3h-17v-3Z"/><polygon class="cls-1" points="448.28 51.92 448.28 42.93 483.22 42.93 483.22 37.94 455.27 37.94 455.27 30.95 448.28 30.95 448.28 21.97 455.27 21.97 455.27 14.98 492.21 14.98 492.21 23.97 464.25 23.97 464.25 28.95 492.21 28.95 492.21 35.94 499.2 35.94 499.2 44.93 492.21 44.93 492.21 51.92 448.28 51.92"/><path d="M491.21,16v7h-28v7h28v7h7v7h-7v7H449.28v-7h34.94v-7h-28V30h-7V23h7V16h34.94m2-2H454.27v7h-7V32h7v7h28v3H447.28v11h45.93v-7h7v-11h-7V28h-28V25h28V14Z"/><polygon class="cls-1" points="175.72 119.01 175.72 98.05 156.75 98.05 156.75 119.01 140.77 119.01 140.77 68.09 156.75 68.09 156.75 89.06 175.72 89.06 175.72 68.09 191.69 68.09 191.69 119.01 175.72 119.01"/><path d="M190.69,69.09V118h-14v-21h-21v21h-14V69.09h14v21h21v-21h14m2-2h-18v21h-17v-21h-18V120h18v-21h17v21h18V67.09Z"/><path class="cls-1" d="M203.67,119v-7h-7v-23h7v-7h37v7h7v16H212.66v5h28v9Zm28-23v-5h-19v5Z"/><path d="M239.62,83.07v7h7v14H211.66v7h28v7h-35v-7h-7v-21h7v-7h35m-28,14h21v-7h-21v7m30-16h-39v7h-7v25h7v7h39V109h-28v-3H248.6v-18h-7v-7Zm-28,11h17v3h-17v-3Z"/><polygon class="cls-1" points="259.58 119.01 259.58 82.07 275.56 82.07 275.56 89.06 280.55 89.06 280.55 82.07 303.51 82.07 303.51 91.06 282.55 91.06 282.55 98.05 275.56 98.05 275.56 119.01 259.58 119.01"/><path d="M302.51,83.07v7h-21v-7h21m-27.95,0v7h7v7h-7v21h-14V83.07h14m29.95-2h-25v7h-3v-7h-18V120h18v-21h7v-7h21v-11Z"/><path class="cls-1" d="M315.49,119v-7h-7v-23h7v-7h36.95v7h7v23h-7v7Zm28-9v-19h-19v19Z"/><path d="M351.44,83.07v7h7v21h-7v7H316.49v-7h-7v-21h7v-7h34.95m-28,28h21v-21h-21v21m30-29.95H314.49v7h-7v25h7v7h38.95v-7h7v-25h-7v-7Zm-28,11h17v17h-17v-17Z"/></g></g></svg>