<svg xmlns="http://www.w3.org/2000/svg" viewBox="0 0 77.6 90.2"><defs><style>.cls-1{fill:#49844d;}.cls-1,.cls-2{stroke:#000;stroke-miterlimit:10;stroke-width:2px;}.cls-2{fill:#d64541;}</style></defs><title>present--red</title><g id="Ebene_2" data-name="Ebene 2"><g id="Ebene_1-2" data-name="Ebene 1"><path class="cls-1" d="M7.3,7.1c-7.64,11.46,3.82,19.1,3.82,19.1H37.86C30.22-.54,14.94-4.36,7.3,7.1Zm4.23,10.57c-.8-1.53-1.43-3.72.87-7.17,1-1.54,2.7-3.36,4.91-3.36,3.46,0,8.1,4.06,11.92,12.93H13.34A10.16,10.16,0,0,1,11.53,17.67Z"/><path class="cls-1" d="M37.64,26.19H64.38s11.46-7.64,3.82-19.1S45.28-.55,37.64,26.19Zm24.52-6.13H46.27c3.82-8.87,8.46-12.94,11.92-12.94,2.21,0,3.89,1.83,4.91,3.37,2.3,3.44,1.67,5.64.87,7.16A10,10,0,0,1,62.16,20.06Z"/><rect class="cls-2" x="1" y="26.2" width="75.6" height="18.9"/><rect class="cls-2" x="8.88" y="45.1" width="59.85" height="44.1"/><rect class="cls-1" x="30.92" y="26.2" width="15.75" height="63"/></g></g></svg>