<svg xmlns="http://www.w3.org/2000/svg" viewBox="0 0 1056.8 181.76"><defs><style>.cls-1{fill:#efefef;}.cls-1,.cls-2,.cls-4,.cls-5,.cls-6,.cls-7{stroke:#000;}.cls-1,.cls-4,.cls-5,.cls-6,.cls-7{stroke-linecap:round;stroke-linejoin:round;}.cls-1,.cls-2,.cls-4,.cls-5,.cls-6{stroke-width:2px;}.cls-2{fill:none;stroke-miterlimit:10;}.cls-3{font-size:22px;font-family:OCRAStd, OCR A Std;}.cls-3,.cls-7{fill:#263e7f;}.cls-4{fill:#bd614a;}.cls-5{fill:#fff;}.cls-6{fill:#e2a66f;}</style></defs><title>roof_3</title><g id="Ebene_2" data-name="Ebene 2"><g id="Ebene_1-2" data-name="Ebene 1"><ellipse class="cls-1" cx="280.37" cy="105.68" rx="2.79" ry="4.18" transform="translate(69.57 318.6) rotate(-65.94)"/><ellipse class="cls-1" cx="265.86" cy="97.49" rx="4.29" ry="2.86" transform="translate(-16.65 116.86) rotate(-24.06)"/><rect class="cls-2" x="266.35" y="112.34" width="18" height="18"/><line class="cls-1" x1="277.15" y1="112.34" x2="277.15" y2="130.34"/><text class="cls-3" transform="translate(326.22 124.23)">Score: 24</text><text class="cls-3" transform="translate(499.02 124.23)">Score: 24</text><text class="cls-3" transform="translate(661.02 124.23)">Score: 24</text><ellipse class="cls-1" cx="299.91" cy="103.17" rx="2.79" ry="4.18" transform="translate(83.43 334.96) rotate(-65.94)"/><rect class="cls-2" x="285.9" y="109.83" width="18" height="18"/><line class="cls-1" x1="296.7" y1="109.83" x2="296.7" y2="127.83"/><line class="cls-1" x1="285.9" y1="117.03" x2="303.9" y2="117.03"/><path class="cls-1" d="M171.22,76.78H64.39s-8.54,0-8.54-5.33,8.54-5.34,8.54-5.34h940s8.55,0,8.55,5.34c0,0,.68,5.33-8.55,5.33H171.22"/><polygon class="cls-1" points="1012.6 76.54 58.6 76.54 1 180.76 1055.8 180.76 1012.6 76.54"/><rect class="cls-4" x="269.29" y="23.74" width="80.95" height="85.26"/><rect class="cls-5" x="263.89" y="23.74" width="26.98" height="17.62"/><rect class="cls-5" x="296.27" y="23.74" width="32.38" height="17.62"/><rect class="cls-5" x="334.05" y="23.74" width="21.59" height="17.62"/><rect class="cls-6" x="263.89" y="23.74" width="26.98" height="17.62"/><rect class="cls-6" x="296.27" y="23.74" width="32.38" height="17.62"/><rect class="cls-6" x="334.05" y="23.74" width="21.59" height="17.62"/><rect class="cls-6" x="263.89" y="68.64" width="32.38" height="17.62"/><rect class="cls-6" x="301.67" y="68.64" width="32.38" height="17.62"/><rect class="cls-6" x="339.44" y="68.64" width="16.19" height="17.62"/><rect class="cls-6" x="323.25" y="46.47" width="32.38" height="17.62" transform="translate(678.88 110.57) rotate(180)"/><rect class="cls-6" x="285.48" y="46.47" width="32.38" height="17.62" transform="translate(603.33 110.57) rotate(180)"/><rect class="cls-6" x="263.89" y="46.47" width="16.19" height="17.62" transform="translate(543.97 110.57) rotate(180)"/><rect class="cls-6" x="323.25" y="91.38" width="32.38" height="17.62" transform="translate(678.88 200.38) rotate(180)"/><rect class="cls-6" x="285.48" y="91.38" width="32.38" height="17.62" transform="translate(603.33 200.38) rotate(180)"/><rect class="cls-6" x="263.89" y="91.38" width="16.19" height="17.62" transform="translate(543.97 200.38) rotate(180)"/><rect class="cls-4" x="253.1" y="18.05" width="113.33" height="11.37"/><path class="cls-1" d="M280.08,23.74a5.38,5.38,0,0,1,5.4-5.69h80.94V6.68A5.37,5.37,0,0,0,361,1H253.1s-10.8,0-10.8,11.37V40.79s0,5.68,5.4,5.68,5.4-5.68,5.4-5.68v-17s0-5.69,5.39-5.69h5.4a5.38,5.38,0,0,1,5.4,5.69v5.68s0,5.69,5.39,5.69,5.4-5.69,5.4-5.69Z"/><rect class="cls-4" x="418.15" y="23.74" width="80.95" height="85.26"/><rect class="cls-5" x="412.75" y="23.74" width="26.98" height="17.62"/><rect class="cls-5" x="445.13" y="23.74" width="32.38" height="17.62"/><rect class="cls-5" x="482.91" y="23.74" width="21.59" height="17.62"/><rect class="cls-6" x="412.75" y="23.74" width="26.98" height="17.62"/><rect class="cls-6" x="445.13" y="23.74" width="32.38" height="17.62"/><rect class="cls-6" x="482.91" y="23.74" width="21.59" height="17.62"/><rect class="cls-6" x="412.75" y="68.64" width="32.38" height="17.62"/><rect class="cls-6" x="450.53" y="68.64" width="32.38" height="17.62"/><rect class="cls-6" x="488.3" y="68.64" width="16.19" height="17.62"/><rect class="cls-6" x="472.11" y="46.47" width="32.38" height="17.62" transform="translate(976.6 110.57) rotate(180)"/><rect class="cls-6" x="434.34" y="46.47" width="32.38" height="17.62" transform="translate(901.05 110.57) rotate(180)"/><rect class="cls-6" x="412.75" y="46.47" width="16.19" height="17.62" transform="translate(841.69 110.57) rotate(180)"/><rect class="cls-6" x="472.11" y="91.38" width="32.38" height="17.62" transform="translate(976.6 200.38) rotate(180)"/><rect class="cls-6" x="434.34" y="91.38" width="32.38" height="17.62" transform="translate(901.05 200.38) rotate(180)"/><rect class="cls-6" x="412.75" y="91.38" width="16.19" height="17.62" transform="translate(841.69 200.38) rotate(180)"/><rect class="cls-4" x="401.96" y="18.05" width="113.33" height="11.37"/><path class="cls-1" d="M428.94,23.74a5.38,5.38,0,0,1,5.4-5.69h80.94V6.68A5.37,5.37,0,0,0,509.89,1H402s-10.8,0-10.8,11.37V40.79s0,5.68,5.4,5.68,5.4-5.68,5.4-5.68v-17s0-5.69,5.39-5.69h5.4a5.38,5.38,0,0,1,5.4,5.69v5.68s0,5.69,5.39,5.69,5.4-5.69,5.4-5.69Z"/><rect class="cls-4" x="565.11" y="23.74" width="80.95" height="85.26"/><rect class="cls-5" x="559.72" y="23.74" width="26.98" height="17.62"/><rect class="cls-5" x="592.1" y="23.74" width="32.38" height="17.62"/><rect class="cls-5" x="629.87" y="23.74" width="21.59" height="17.62"/><rect class="cls-6" x="559.72" y="23.74" width="26.98" height="17.62"/><rect class="cls-6" x="592.1" y="23.74" width="32.38" height="17.62"/><rect class="cls-6" x="629.87" y="23.74" width="21.59" height="17.62"/><rect class="cls-6" x="559.72" y="68.64" width="32.38" height="17.62"/><rect class="cls-6" x="597.49" y="68.64" width="32.38" height="17.62"/><rect class="cls-6" x="635.27" y="68.64" width="16.19" height="17.62"/><rect class="cls-6" x="619.08" y="46.47" width="32.38" height="17.62" transform="translate(1270.54 110.57) rotate(180)"/><rect class="cls-6" x="581.3" y="46.47" width="32.38" height="17.62" transform="translate(1194.98 110.57) rotate(180)"/><rect class="cls-6" x="559.72" y="46.47" width="16.19" height="17.62" transform="translate(1135.62 110.57) rotate(180)"/><rect class="cls-6" x="619.08" y="91.38" width="32.38" height="17.62" transform="translate(1270.54 200.38) rotate(180)"/><rect class="cls-6" x="581.3" y="91.38" width="32.38" height="17.62" transform="translate(1194.98 200.38) rotate(180)"/><rect class="cls-6" x="559.72" y="91.38" width="16.19" height="17.62" transform="translate(1135.62 200.38) rotate(180)"/><rect class="cls-4" x="548.92" y="18.05" width="113.33" height="11.37"/><path class="cls-1" d="M575.91,23.74a5.38,5.38,0,0,1,5.39-5.69h81V6.68A5.38,5.38,0,0,0,656.85,1H548.92s-10.79,0-10.79,11.37V40.79s0,5.68,5.4,5.68,5.39-5.68,5.39-5.68v-17s0-5.69,5.4-5.69h5.4a5.38,5.38,0,0,1,5.39,5.69v5.68s0,5.69,5.4,5.69,5.4-5.69,5.4-5.69Z"/><rect class="cls-4" x="713.16" y="23.74" width="80.95" height="85.26"/><rect class="cls-5" x="707.76" y="23.74" width="26.98" height="17.62"/><rect class="cls-5" x="740.14" y="23.74" width="32.38" height="17.62"/><rect class="cls-5" x="777.92" y="23.74" width="21.59" height="17.62"/><rect class="cls-6" x="707.76" y="23.74" width="26.98" height="17.62"/><rect class="cls-6" x="740.14" y="23.74" width="32.38" height="17.62"/><rect class="cls-6" x="777.92" y="23.74" width="21.59" height="17.62"/><rect class="cls-6" x="707.76" y="68.64" width="32.38" height="17.62"/><rect class="cls-6" x="745.54" y="68.64" width="32.38" height="17.62"/><rect class="cls-6" x="783.31" y="68.64" width="16.19" height="17.62"/><rect class="cls-6" x="767.12" y="46.47" width="32.38" height="17.62" transform="translate(1566.63 110.57) rotate(180)"/><rect class="cls-6" x="729.35" y="46.47" width="32.38" height="17.62" transform="translate(1491.08 110.57) rotate(180)"/><rect class="cls-6" x="707.76" y="46.47" width="16.19" height="17.62" transform="translate(1431.71 110.57) rotate(180)"/><rect class="cls-6" x="767.12" y="91.38" width="32.38" height="17.62" transform="translate(1566.63 200.38) rotate(180)"/><rect class="cls-6" x="729.35" y="91.38" width="32.38" height="17.62" transform="translate(1491.08 200.38) rotate(180)"/><rect class="cls-6" x="707.76" y="91.38" width="16.19" height="17.62" transform="translate(1431.71 200.38) rotate(180)"/><rect class="cls-4" x="696.97" y="18.05" width="113.33" height="11.37"/><path class="cls-1" d="M724,23.74a5.38,5.38,0,0,1,5.4-5.69H810.3V6.68A5.38,5.38,0,0,0,804.9,1H697s-10.79,0-10.79,11.37V40.79s0,5.68,5.39,5.68,5.4-5.68,5.4-5.68v-17s0-5.69,5.4-5.69h5.39a5.38,5.38,0,0,1,5.4,5.69v5.68s0,5.69,5.39,5.69,5.4-5.69,5.4-5.69Z"/><circle class="cls-1" cx="309.28" cy="65.45" r="23.62"/><path class="cls-7" d="M305.9,61.48H305c-.89,0-2.11-.19-2.11-1.53S304,58.41,305,58.41h.87V58c0-1.76.09-3,1.47-4.39s2.85-1.53,4.74-1.53h2.08c1.05,0,2.23.09,2.23,1.53s-1.05,1.54-2.11,1.54h-2.4c-2.08,0-2.94.41-2.94,2.65v.61h2.72c1,0,2.11.23,2.11,1.54s-1.22,1.53-2.11,1.53H309V73.55c0,1-.22,2.11-1.54,2.11s-1.53-1.06-1.53-2.11Z"/><circle class="cls-1" cx="458.64" cy="65.45" r="23.62"/><path class="cls-7" d="M450.75,61.14a4.37,4.37,0,0,1,1.06-3.23l2.24-1.76a2.75,2.75,0,0,1,1.92-.74h3A5.65,5.65,0,0,1,462,57l.77.61V57.2a1.59,1.59,0,0,1,1.57-1.79c1.34,0,1.5,1.12,1.5,2.15v15c0,2.79-.22,3.36-1.5,4.45l-1,.86a4.86,4.86,0,0,1-3.84,1.32h-5.08c-.9,0-2.12-.2-2.12-1.54s1.09-1.54,2.12-1.54H460a2.19,2.19,0,0,0,1.53-.7l.77-.7a1.81,1.81,0,0,0,.45-1.28V69.2l-.64.64a4.27,4.27,0,0,1-2.53,1.51h-3.61a3.16,3.16,0,0,1-2.31-.93l-1.92-1.73a3.32,3.32,0,0,1-1-2.88Zm3.07,4.22c0,.64,0,1.32.39,1.6l1.28,1a1.3,1.3,0,0,0,.89.28h2.24a2.61,2.61,0,0,0,1.41-.79l2.37-2a1.4,1.4,0,0,0,.32-1V62.26a1.4,1.4,0,0,0-.32-1l-2.37-2a2.64,2.64,0,0,0-1.41-.8h-2.24a1.31,1.31,0,0,0-.89.29l-1.28,1c-.35.28-.39,1-.39,1.6Z"/><circle class="cls-1" cx="606.01" cy="65.45" r="23.62"/><path class="cls-7" d="M607.69,60.48a1.87,1.87,0,0,0-1,.29l-4.54,2.85v8.93c0,1-.22,2.11-1.53,2.11s-1.54-1.06-1.54-2.11V53.19c0-1.06.22-2.11,1.54-2.11s1.53,1.05,1.53,2.11v6.88l2.5-1.63a5.2,5.2,0,0,1,2.75-1h2a4.08,4.08,0,0,1,3,1.12c1.38,1.19,1.31,2.5,1.38,4.16l.32,9.67c0,1.08-.13,2.3-1.51,2.3s-1.5-1.06-1.53-2.08l-.32-9.47c-.07-1.47,0-2.63-1.7-2.63Z"/><circle class="cls-1" cx="755.38" cy="65.45" r="23.62"/><path class="cls-7" d="M760,76.52c0,1.7,0,3-1.25,4.32a4.27,4.27,0,0,1-3.58,1.35h-2.56a4.41,4.41,0,0,1-2.88-.87,4.55,4.55,0,0,1-1.76-3.2,1.55,1.55,0,0,1,3.07-.29c.32,1.16.83,1.28,2,1.28h2c2,0,1.89-.8,1.89-2.59v-15h-3.71c-.9,0-2.12-.19-2.12-1.53s1.09-1.54,2.12-1.54h4.51c1.76,0,2.27.32,2.27,2.15ZM755.38,52.2a1.27,1.27,0,0,1,1.44-1.44h1.76A1.27,1.27,0,0,1,760,52.2v1.48a1.27,1.27,0,0,1-1.44,1.44h-1.76a1.27,1.27,0,0,1-1.44-1.44Z"/></g></g></svg>