<svg xmlns="http://www.w3.org/2000/svg" viewBox="0 0 1056.8 181.76"><defs><style>.cls-1{fill:#efefef;}.cls-1,.cls-2,.cls-4,.cls-5,.cls-6,.cls-7{stroke:#000;}.cls-1,.cls-4,.cls-5,.cls-6,.cls-7{stroke-linecap:round;stroke-linejoin:round;}.cls-1,.cls-2,.cls-4,.cls-5,.cls-6{stroke-width:2px;}.cls-2{fill:none;stroke-miterlimit:10;}.cls-3{font-size:22px;}.cls-3,.cls-7{fill:#263e7f;font-family:OCRAStd, OCR A Std;}.cls-4{fill:#bd614a;}.cls-5{fill:#fff;}.cls-6{fill:#e2a66f;}.cls-7{font-size:32px;}</style></defs><title>roof-2</title><g id="Ebene_2" data-name="Ebene 2"><g id="Ebene_1-2" data-name="Ebene 1"><ellipse class="cls-1" cx="280.37" cy="105.68" rx="2.79" ry="4.18" transform="translate(69.57 318.6) rotate(-65.94)"/><ellipse class="cls-1" cx="265.86" cy="97.49" rx="4.29" ry="2.86" transform="translate(-16.65 116.86) rotate(-24.06)"/><rect class="cls-2" x="266.35" y="112.34" width="18" height="18"/><line class="cls-1" x1="277.15" y1="112.34" x2="277.15" y2="130.34"/><text class="cls-3" transform="translate(326.22 124.23)">Score: 24</text><text class="cls-3" transform="translate(499.02 124.23)">Score: 24</text><text class="cls-3" transform="translate(661.02 124.23)">Score: 24</text><ellipse class="cls-1" cx="299.91" cy="103.17" rx="2.79" ry="4.18" transform="translate(83.43 334.96) rotate(-65.94)"/><rect class="cls-2" x="285.9" y="109.83" width="18" height="18"/><line class="cls-1" x1="296.7" y1="109.83" x2="296.7" y2="127.83"/><line class="cls-1" x1="285.9" y1="117.03" x2="303.9" y2="117.03"/><path class="cls-1" d="M171.22,76.78H64.39s-8.54,0-8.54-5.33,8.54-5.34,8.54-5.34h940s8.55,0,8.55,5.34c0,0,.68,5.33-8.55,5.33H171.22"/><polygon class="cls-1" points="1012.6 76.54 58.6 76.54 1 180.76 1055.8 180.76 1012.6 76.54"/><rect class="cls-4" x="269.29" y="23.74" width="80.95" height="85.26"/><rect class="cls-5" x="263.89" y="23.74" width="26.98" height="17.62"/><rect class="cls-5" x="296.27" y="23.74" width="32.38" height="17.62"/><rect class="cls-5" x="334.05" y="23.74" width="21.59" height="17.62"/><rect class="cls-6" x="263.89" y="23.74" width="26.98" height="17.62"/><rect class="cls-6" x="296.27" y="23.74" width="32.38" height="17.62"/><rect class="cls-6" x="334.05" y="23.74" width="21.59" height="17.62"/><rect class="cls-6" x="263.89" y="68.64" width="32.38" height="17.62"/><rect class="cls-6" x="301.67" y="68.64" width="32.38" height="17.62"/><rect class="cls-6" x="339.44" y="68.64" width="16.19" height="17.62"/><rect class="cls-6" x="323.25" y="46.47" width="32.38" height="17.62" transform="translate(678.88 110.57) rotate(180)"/><rect class="cls-6" x="285.48" y="46.47" width="32.38" height="17.62" transform="translate(603.33 110.57) rotate(180)"/><rect class="cls-6" x="263.89" y="46.47" width="16.19" height="17.62" transform="translate(543.97 110.57) rotate(180)"/><rect class="cls-6" x="323.25" y="91.38" width="32.38" height="17.62" transform="translate(678.88 200.38) rotate(180)"/><rect class="cls-6" x="285.48" y="91.38" width="32.38" height="17.62" transform="translate(603.33 200.38) rotate(180)"/><rect class="cls-6" x="263.89" y="91.38" width="16.19" height="17.62" transform="translate(543.97 200.38) rotate(180)"/><rect class="cls-4" x="253.1" y="18.05" width="113.33" height="11.37"/><path class="cls-1" d="M280.08,23.74a5.38,5.38,0,0,1,5.4-5.69h80.94V6.68A5.37,5.37,0,0,0,361,1H253.1s-10.8,0-10.8,11.37V40.79s0,5.68,5.4,5.68,5.4-5.68,5.4-5.68v-17s0-5.69,5.39-5.69h5.4a5.38,5.38,0,0,1,5.4,5.69v5.68s0,5.69,5.39,5.69,5.4-5.69,5.4-5.69Z"/><rect class="cls-4" x="418.15" y="23.74" width="80.95" height="85.26"/><rect class="cls-5" x="412.75" y="23.74" width="26.98" height="17.62"/><rect class="cls-5" x="445.13" y="23.74" width="32.38" height="17.62"/><rect class="cls-5" x="482.91" y="23.74" width="21.59" height="17.62"/><rect class="cls-6" x="412.75" y="23.74" width="26.98" height="17.62"/><rect class="cls-6" x="445.13" y="23.74" width="32.38" height="17.62"/><rect class="cls-6" x="482.91" y="23.74" width="21.59" height="17.62"/><rect class="cls-6" x="412.75" y="68.64" width="32.38" height="17.62"/><rect class="cls-6" x="450.53" y="68.64" width="32.38" height="17.62"/><rect class="cls-6" x="488.3" y="68.64" width="16.19" height="17.62"/><rect class="cls-6" x="472.11" y="46.47" width="32.38" height="17.62" transform="translate(976.6 110.57) rotate(180)"/><rect class="cls-6" x="434.34" y="46.47" width="32.38" height="17.62" transform="translate(901.05 110.57) rotate(180)"/><rect class="cls-6" x="412.75" y="46.47" width="16.19" height="17.62" transform="translate(841.69 110.57) rotate(180)"/><rect class="cls-6" x="472.11" y="91.38" width="32.38" height="17.62" transform="translate(976.6 200.38) rotate(180)"/><rect class="cls-6" x="434.34" y="91.38" width="32.38" height="17.62" transform="translate(901.05 200.38) rotate(180)"/><rect class="cls-6" x="412.75" y="91.38" width="16.19" height="17.62" transform="translate(841.69 200.38) rotate(180)"/><rect class="cls-4" x="401.96" y="18.05" width="113.33" height="11.37"/><path class="cls-1" d="M428.94,23.74a5.38,5.38,0,0,1,5.4-5.69h80.94V6.68A5.37,5.37,0,0,0,509.89,1H402s-10.8,0-10.8,11.37V40.79s0,5.68,5.4,5.68,5.4-5.68,5.4-5.68v-17s0-5.69,5.39-5.69h5.4a5.38,5.38,0,0,1,5.4,5.69v5.68s0,5.69,5.39,5.69,5.4-5.69,5.4-5.69Z"/><rect class="cls-4" x="565.11" y="23.74" width="80.95" height="85.26"/><rect class="cls-5" x="559.72" y="23.74" width="26.98" height="17.62"/><rect class="cls-5" x="592.1" y="23.74" width="32.38" height="17.62"/><rect class="cls-5" x="629.87" y="23.74" width="21.59" height="17.62"/><rect class="cls-6" x="559.72" y="23.74" width="26.98" height="17.62"/><rect class="cls-6" x="592.1" y="23.74" width="32.38" height="17.62"/><rect class="cls-6" x="629.87" y="23.74" width="21.59" height="17.62"/><rect class="cls-6" x="559.72" y="68.64" width="32.38" height="17.62"/><rect class="cls-6" x="597.49" y="68.64" width="32.38" height="17.62"/><rect class="cls-6" x="635.27" y="68.64" width="16.19" height="17.62"/><rect class="cls-6" x="619.08" y="46.47" width="32.38" height="17.62" transform="translate(1270.54 110.57) rotate(180)"/><rect class="cls-6" x="581.3" y="46.47" width="32.38" height="17.62" transform="translate(1194.98 110.57) rotate(180)"/><rect class="cls-6" x="559.72" y="46.47" width="16.19" height="17.62" transform="translate(1135.62 110.57) rotate(180)"/><rect class="cls-6" x="619.08" y="91.38" width="32.38" height="17.62" transform="translate(1270.54 200.38) rotate(180)"/><rect class="cls-6" x="581.3" y="91.38" width="32.38" height="17.62" transform="translate(1194.98 200.38) rotate(180)"/><rect class="cls-6" x="559.72" y="91.38" width="16.19" height="17.62" transform="translate(1135.62 200.38) rotate(180)"/><rect class="cls-4" x="548.92" y="18.05" width="113.33" height="11.37"/><path class="cls-1" d="M575.91,23.74a5.38,5.38,0,0,1,5.39-5.69h81V6.68A5.38,5.38,0,0,0,656.85,1H548.92s-10.79,0-10.79,11.37V40.79s0,5.68,5.4,5.68,5.39-5.68,5.39-5.68v-17s0-5.69,5.4-5.69h5.4a5.38,5.38,0,0,1,5.39,5.69v5.68s0,5.69,5.4,5.69,5.4-5.69,5.4-5.69Z"/><rect class="cls-4" x="713.16" y="23.74" width="80.95" height="85.26"/><rect class="cls-5" x="707.76" y="23.74" width="26.98" height="17.62"/><rect class="cls-5" x="740.14" y="23.74" width="32.38" height="17.62"/><rect class="cls-5" x="777.92" y="23.74" width="21.59" height="17.62"/><rect class="cls-6" x="707.76" y="23.74" width="26.98" height="17.62"/><rect class="cls-6" x="740.14" y="23.74" width="32.38" height="17.62"/><rect class="cls-6" x="777.92" y="23.74" width="21.59" height="17.62"/><rect class="cls-6" x="707.76" y="68.64" width="32.38" height="17.62"/><rect class="cls-6" x="745.54" y="68.64" width="32.38" height="17.62"/><rect class="cls-6" x="783.31" y="68.64" width="16.19" height="17.62"/><rect class="cls-6" x="767.12" y="46.47" width="32.38" height="17.62" transform="translate(1566.63 110.57) rotate(180)"/><rect class="cls-6" x="729.35" y="46.47" width="32.38" height="17.62" transform="translate(1491.08 110.57) rotate(180)"/><rect class="cls-6" x="707.76" y="46.47" width="16.19" height="17.62" transform="translate(1431.71 110.57) rotate(180)"/><rect class="cls-6" x="767.12" y="91.38" width="32.38" height="17.62" transform="translate(1566.63 200.38) rotate(180)"/><rect class="cls-6" x="729.35" y="91.38" width="32.38" height="17.62" transform="translate(1491.08 200.38) rotate(180)"/><rect class="cls-6" x="707.76" y="91.38" width="16.19" height="17.62" transform="translate(1431.71 200.38) rotate(180)"/><rect class="cls-4" x="696.97" y="18.05" width="113.33" height="11.37"/><path class="cls-1" d="M724,23.74a5.38,5.38,0,0,1,5.4-5.69H810.3V6.68A5.38,5.38,0,0,0,804.9,1H697s-10.79,0-10.79,11.37V40.79s0,5.68,5.39,5.68,5.4-5.68,5.4-5.68v-17s0-5.69,5.4-5.69h5.39a5.38,5.38,0,0,1,5.4,5.69v5.68s0,5.69,5.39,5.69,5.4-5.69,5.4-5.69Z"/><circle class="cls-1" cx="309.28" cy="65.45" r="23.62"/><text class="cls-7" transform="translate(297.39 74.66)">s</text><circle class="cls-1" cx="458.64" cy="65.45" r="23.62"/><text class="cls-7" transform="translate(447.75 77.66)">f</text><circle class="cls-1" cx="606.01" cy="65.45" r="23.62"/><text class="cls-7" transform="translate(593.12 74.66)">j</text><circle class="cls-1" cx="755.38" cy="65.45" r="23.62"/><text class="cls-7" transform="translate(744.49 75.66)">l</text></g></g></svg>