<svg xmlns="http://www.w3.org/2000/svg" viewBox="0 0 66.14 216.36"><defs><style>.cls-1{fill:#51332a;}.cls-1,.cls-2,.cls-3,.cls-4{stroke:#000;stroke-linecap:round;stroke-linejoin:round;stroke-width:2px;}.cls-2{fill:#efefef;}.cls-3{fill:#c19c40;}</style></defs><title>snowman__hand</title><g id="Ebene_2" data-name="Ebene 2"><g id="Ebene_1-2" data-name="Ebene 1"><rect class="cls-1" x="8.03" y="133.12" width="7.2" height="82.8" rx="3.6" transform="translate(30.09 0.59) rotate(9.87)"/><ellipse class="cls-2" cx="20.8" cy="126.6" rx="19.8" ry="17.72"/><rect class="cls-1" x="21.92" y="65.92" width="7.2" height="57.6" rx="3.6" transform="translate(16.62 -2.97) rotate(9.87)"/><path class="cls-3" d="M15.26,4.55h43.2a0,0,0,0,1,0,0V55a21.6,21.6,0,0,1-21.6,21.6h0A21.6,21.6,0,0,1,15.26,55V4.55a0,0,0,0,1,0,0Z" transform="translate(8.73 -6.48) rotate(11.38)"/><rect class="cls-1" x="13.56" y="42.15" width="42.57" height="9.53" transform="translate(9.17 -5.59) rotate(10.55)"/><polygon class="cls-4" points="33.4 4.48 29.8 18.88 37 4.48 33.4 4.48"/></g></g></svg>