<svg xmlns="http://www.w3.org/2000/svg" viewBox="0 0 1202.07 765.44"><defs><style>.cls-1{fill:#efefef;stroke:#000;stroke-linecap:round;stroke-linejoin:round;stroke-width:2px;}</style></defs><title>snowFlakes-4</title><g id="Ebene_2" data-name="Ebene 2"><g id="Ebene_1-2" data-name="Ebene 1"><g id="Ebene_1-2-2" data-name="Ebene 1-2"><circle class="cls-1" cx="367.17" cy="353.33" r="6.16"/><circle class="cls-1" cx="478.49" cy="498.7" r="6.16"/><circle class="cls-1" cx="623.2" cy="350.71" r="6.16"/><circle class="cls-1" cx="246.6" cy="360.01" r="6.16"/><circle class="cls-1" cx="197.79" cy="253.37" r="6.16"/><circle class="cls-1" cx="82.39" cy="281.63" r="6.16"/><circle class="cls-1" cx="80.9" cy="491.74" r="6.16"/><circle class="cls-1" cx="7.16" cy="630.89" r="6.16"/><circle class="cls-1" cx="295.09" cy="217.8" r="6.16"/><circle class="cls-1" cx="282.61" cy="43.94" r="6.16"/><circle class="cls-1" cx="404.05" cy="7.16" r="6.16"/><circle class="cls-1" cx="537.9" cy="179.78" r="6.16"/></g><g id="Ebene_1-2-3" data-name="Ebene 1-2"><circle class="cls-1" cx="979.02" cy="332.29" r="6.16"/><circle class="cls-1" cx="1150.39" cy="396.77" r="6.16"/><circle class="cls-1" cx="1194.91" cy="194.64" r="6.16" transform="translate(77.9 661.53) rotate(-31.94)"/><circle class="cls-1" cx="880.23" cy="401.74" r="6.16"/><circle class="cls-1" cx="782.4" cy="337.06" r="6.16"/><circle class="cls-1" cx="699.42" cy="422.08" r="6.16"/><circle class="cls-1" cx="809.29" cy="601.18" r="6.16"/><circle class="cls-1" cx="820.32" cy="758.27" r="6.16" transform="translate(-276.94 548.69) rotate(-31.94)"/><circle class="cls-1" cx="846.16" cy="255.4" r="6.16"/><circle class="cls-1" cx="743.6" cy="114.46" r="6.16"/><circle class="cls-1" cx="827.2" cy="19.01" r="6.16"/><circle class="cls-1" cx="1032.11" cy="94.7" r="6.16" transform="translate(106.12 560.28) rotate(-31.94)"/></g></g></g></svg>