<svg xmlns="http://www.w3.org/2000/svg" viewBox="0 0 887 639.21"><defs><style>.cls-1{fill:#efefef;stroke:#000;stroke-linecap:round;stroke-linejoin:round;stroke-width:2px;}</style></defs><title>snowFlakes-3</title><g id="Ebene_2" data-name="Ebene 2"><g id="Ebene_1-2" data-name="Ebene 1"><g id="Ebene_1-2-2" data-name="Ebene 1-2"><g id="Ebene_1-2-2-2" data-name="Ebene 1-2-2"><circle class="cls-1" cx="194.16" cy="338.51" r="5.17"/><circle class="cls-1" cx="60.05" cy="413.79" r="5.17"/><circle class="cls-1" cx="165.9" cy="551.74" r="5.17" transform="translate(-403.77 637.84) rotate(-81.86)"/><circle class="cls-1" cx="202.94" cy="237.46" r="5.17"/><circle class="cls-1" cx="297.41" cy="209.56" r="5.17"/><circle class="cls-1" cx="287.64" cy="110.24" r="5.17"/><circle class="cls-1" cx="113.11" cy="84.02" r="5.17"/><circle class="cls-1" cx="6.17" cy="6.17" r="5.17"/><circle class="cls-1" cx="315.42" cy="294.69" r="5.17"/><circle class="cls-1" cx="461.47" cy="304.98" r="5.17"/><circle class="cls-1" cx="477.61" cy="410.33" r="5.17"/><circle class="cls-1" cx="318.17" cy="501.13" r="5.17"/></g></g><g id="Ebene_1-2-3" data-name="Ebene 1-2"><g id="Ebene_1-2-2-3" data-name="Ebene 1-2-2"><circle class="cls-1" cx="597.38" cy="419.82" r="5.17"/><circle class="cls-1" cx="463.27" cy="495.1" r="5.17"/><circle class="cls-1" cx="569.12" cy="633.04" r="5.17" transform="translate(-138.12 1106.79) rotate(-81.86)"/><circle class="cls-1" cx="606.16" cy="318.77" r="5.17"/><circle class="cls-1" cx="700.63" cy="290.87" r="5.17"/><circle class="cls-1" cx="690.86" cy="191.55" r="5.17"/><circle class="cls-1" cx="516.33" cy="165.33" r="5.17"/><circle class="cls-1" cx="409.39" cy="87.47" r="5.17"/><circle class="cls-1" cx="718.64" cy="376" r="5.17"/><circle class="cls-1" cx="864.69" cy="386.29" r="5.17"/><circle class="cls-1" cx="880.83" cy="491.64" r="5.17"/><circle class="cls-1" cx="721.39" cy="582.44" r="5.17"/></g></g></g></g></svg>