<svg xmlns="http://www.w3.org/2000/svg" viewBox="0 0 630.36 643.16"><defs><style>.cls-1{fill:#efefef;stroke:#000;stroke-linecap:round;stroke-linejoin:round;stroke-width:2px;}</style></defs><title>snow--1</title><g id="Ebene_2" data-name="Ebene 2"><g id="Ebene_1-2" data-name="Ebene 1"><circle class="cls-1" cx="367.17" cy="358.44" r="6.16"/><circle class="cls-1" cx="478.49" cy="503.81" r="6.16"/><circle class="cls-1" cx="623.2" cy="355.82" r="6.16"/><circle class="cls-1" cx="246.6" cy="365.12" r="6.16"/><circle class="cls-1" cx="173.24" cy="307.58" r="6.16"/><circle class="cls-1" cx="57.84" cy="335.84" r="6.16"/><circle class="cls-1" cx="80.9" cy="496.85" r="6.16"/><circle class="cls-1" cx="7.16" cy="636" r="6.16"/><circle class="cls-1" cx="295.09" cy="222.91" r="6.16"/><circle class="cls-1" cx="282.61" cy="49.05" r="6.16"/><circle class="cls-1" cx="404.05" cy="12.27" r="6.16"/><circle class="cls-1" cx="537.9" cy="184.89" r="6.16"/><circle class="cls-1" cx="443.41" cy="565.92" r="6.16"/><circle class="cls-1" cx="322.84" cy="572.6" r="6.16"/><circle class="cls-1" cx="274.03" cy="465.96" r="6.16"/><circle class="cls-1" cx="158.63" cy="494.22" r="6.16"/><circle class="cls-1" cx="371.33" cy="430.39" r="6.16"/><circle class="cls-1" cx="358.85" cy="256.53" r="6.16"/><circle class="cls-1" cx="480.29" cy="219.75" r="6.16"/><circle class="cls-1" cx="614.14" cy="392.37" r="6.16"/><circle class="cls-1" cx="377" cy="289.25" r="6.16"/><circle class="cls-1" cx="307.58" cy="458.67" r="6.16"/><circle class="cls-1" cx="508.34" cy="509.03" r="6.16" transform="translate(-187.3 325.73) rotate(-30.28)"/><circle class="cls-1" cx="310.44" cy="188.49" r="6.16"/><circle class="cls-1" cx="377.92" cy="92.57" r="6.16"/><circle class="cls-1" cx="295.34" cy="7.16" r="6.16"/><circle class="cls-1" cx="88.59" cy="160.9" r="6.16"/><circle class="cls-1" cx="457.7" cy="158.67" r="6.16"/><circle class="cls-1" cx="601.55" cy="60.23" r="6.16"/><circle class="cls-1" cx="612.95" cy="349.19" r="6.16" transform="translate(-92.45 356.66) rotate(-30.28)"/><circle class="cls-1" cx="236.26" cy="459.69" r="6.16"/><circle class="cls-1" cx="166.84" cy="629.12" r="6.16"/><circle class="cls-1" cx="169.7" cy="358.93" r="6.16"/><circle class="cls-1" cx="212.64" cy="312.11" r="6.16"/><circle class="cls-1" cx="130.05" cy="226.7" r="6.16"/><circle class="cls-1" cx="273.19" cy="128.73" r="6.16"/><circle class="cls-1" cx="157.79" cy="156.99" r="6.16"/><circle class="cls-1" cx="89.88" cy="63.07" r="6.16"/><circle class="cls-1" cx="86.33" cy="114.42" r="6.16"/><circle class="cls-1" cx="129.27" cy="67.6" r="6.16"/><circle class="cls-1" cx="312.58" cy="133.26" r="6.16"/><circle class="cls-1" cx="229.99" cy="47.85" r="6.16"/><circle class="cls-1" cx="316.96" cy="329.11" r="6.16"/><circle class="cls-1" cx="97.6" cy="599" r="6.16"/><circle class="cls-1" cx="194.9" cy="563.43" r="6.16"/><circle class="cls-1" cx="210.25" cy="529.01" r="6.16"/><circle class="cls-1" cx="12.95" cy="452.32" r="6.16"/><circle class="cls-1" cx="137" cy="603.53" r="6.16"/><circle class="cls-1" cx="54.41" cy="518.12" r="6.16"/><circle class="cls-1" cx="608.04" cy="540.51" r="6.16"/><circle class="cls-1" cx="492.64" cy="568.77" r="6.16"/><circle class="cls-1" cx="523.38" cy="393.83" r="6.16"/><circle class="cls-1" cx="564.84" cy="459.63" r="6.16"/><circle class="cls-1" cx="460.81" cy="230.68" r="6.16"/><circle class="cls-1" cx="553.8" cy="317.01" r="6.16"/><circle class="cls-1" cx="472.21" cy="519.63" r="6.16" transform="translate(-197.58 308.95) rotate(-30.28)"/></g></g></svg>