<svg xmlns="http://www.w3.org/2000/svg" viewBox="0 0 490.8 563.61"><defs><style>.cls-1{fill:#efefef;stroke:#000;stroke-linecap:round;stroke-linejoin:round;stroke-width:2px;}</style></defs><title>snow--2</title><g id="Ebene_2" data-name="Ebene 2"><g id="Ebene_1-2" data-name="Ebene 1"><circle class="cls-1" cx="201.18" cy="344.22" r="5.17"/><circle class="cls-1" cx="67.07" cy="419.5" r="5.17"/><circle class="cls-1" cx="172.92" cy="557.44" r="5.17" transform="translate(-403.39 649.69) rotate(-81.86)"/><circle class="cls-1" cx="209.96" cy="243.17" r="5.17"/><circle class="cls-1" cx="304.43" cy="215.27" r="5.17"/><circle class="cls-1" cx="294.66" cy="115.95" r="5.17"/><circle class="cls-1" cx="120.13" cy="89.73" r="5.17"/><circle class="cls-1" cx="13.19" cy="11.87" r="5.17"/><circle class="cls-1" cx="322.44" cy="300.4" r="5.17"/><circle class="cls-1" cx="468.49" cy="310.69" r="5.17"/><circle class="cls-1" cx="484.63" cy="416.04" r="5.17"/><circle class="cls-1" cx="325.19" cy="506.84" r="5.17"/><circle class="cls-1" cx="394.67" cy="293.34" r="5.17"/><circle class="cls-1" cx="422.93" cy="80.12" r="5.17" transform="translate(283.73 487.44) rotate(-81.86)"/><circle class="cls-1" cx="385.89" cy="394.39" r="5.17"/><circle class="cls-1" cx="291.42" cy="422.29" r="5.17"/><circle class="cls-1" cx="301.19" cy="521.61" r="5.17"/><circle class="cls-1" cx="475.72" cy="547.83" r="5.17"/><circle class="cls-1" cx="273.41" cy="337.16" r="5.17"/><circle class="cls-1" cx="127.36" cy="326.87" r="5.17"/><circle class="cls-1" cx="111.22" cy="221.52" r="5.17"/><circle class="cls-1" cx="270.66" cy="130.72" r="5.17"/><circle class="cls-1" cx="62.07" cy="315.33" r="5.17"/><circle class="cls-1" cx="33.81" cy="528.55" r="5.17" transform="translate(-494.2 487.18) rotate(-81.86)"/><circle class="cls-1" cx="70.85" cy="214.28" r="5.17"/><circle class="cls-1" cx="165.32" cy="186.38" r="5.17"/><circle class="cls-1" cx="155.55" cy="87.06" r="5.17"/><circle class="cls-1" cx="183.33" cy="271.51" r="5.17"/><circle class="cls-1" cx="329.38" cy="281.8" r="5.17"/><circle class="cls-1" cx="345.52" cy="387.15" r="5.17"/><circle class="cls-1" cx="186.08" cy="477.95" r="5.17"/><circle class="cls-1" cx="255.56" cy="264.45" r="5.17"/><circle class="cls-1" cx="389.67" cy="189.17" r="5.17"/><circle class="cls-1" cx="283.82" cy="51.23" r="5.17" transform="translate(192.92 324.94) rotate(-81.86)"/><circle class="cls-1" cx="246.78" cy="365.5" r="5.17"/><circle class="cls-1" cx="152.31" cy="393.4" r="5.17"/><circle class="cls-1" cx="162.08" cy="492.72" r="5.17"/><circle class="cls-1" cx="336.61" cy="518.94" r="5.17"/><circle class="cls-1" cx="134.3" cy="308.27" r="5.17"/><circle class="cls-1" cx="272.91" cy="468.73" r="5.17"/><circle class="cls-1" cx="174.17" cy="447.08" r="5.17"/><circle class="cls-1" cx="133.8" cy="439.84" r="5.17"/><circle class="cls-1" cx="228.27" cy="411.94" r="5.17"/><circle class="cls-1" cx="246.28" cy="497.07" r="5.17"/><circle class="cls-1" cx="197.25" cy="533.83" r="5.17"/><circle class="cls-1" cx="463.75" cy="477.89" r="5.17"/><circle class="cls-1" cx="365.01" cy="456.24" r="5.17"/><circle class="cls-1" cx="324.65" cy="449" r="5.17"/><circle class="cls-1" cx="419.12" cy="421.1" r="5.17"/><circle class="cls-1" cx="437.13" cy="506.23" r="5.17"/><circle class="cls-1" cx="388.1" cy="543" r="5.17"/><circle class="cls-1" cx="459.17" cy="174.07" r="5.17"/><circle class="cls-1" cx="360.43" cy="152.42" r="5.17"/><circle class="cls-1" cx="320.07" cy="145.18" r="5.17"/><circle class="cls-1" cx="414.54" cy="117.28" r="5.17"/><circle class="cls-1" cx="432.55" cy="202.41" r="5.17"/><circle class="cls-1" cx="383.52" cy="239.17" r="5.17"/><circle class="cls-1" cx="236.27" cy="77.89" r="5.17"/><circle class="cls-1" cx="137.53" cy="56.24" r="5.17"/><circle class="cls-1" cx="97.16" cy="49" r="5.17"/><circle class="cls-1" cx="191.63" cy="21.1" r="5.17"/><circle class="cls-1" cx="209.64" cy="106.23" r="5.17"/><circle class="cls-1" cx="160.61" cy="142.99" r="5.17"/><circle class="cls-1" cx="465.55" cy="24.63" r="5.17"/><circle class="cls-1" cx="373.68" cy="66.8" r="5.17"/><circle class="cls-1" cx="337.09" cy="85.33" r="5.17"/><circle class="cls-1" cx="395.71" cy="6.17" r="5.17" transform="translate(76.08 239.54) rotate(-37.03)"/><circle class="cls-1" cx="461.36" cy="63.29" r="5.17"/><circle class="cls-1" cx="444.35" cy="122.16" r="5.17"/><circle class="cls-1" cx="52.35" cy="90.88" r="5.17"/><circle class="cls-1" cx="48.16" cy="129.54" r="5.17"/><circle class="cls-1" cx="31.16" cy="188.42" r="5.17"/><circle class="cls-1" cx="98.04" cy="381.87" r="5.17"/><circle class="cls-1" cx="6.17" cy="424.05" r="5.17"/><circle class="cls-1" cx="28.2" cy="363.41" r="5.17" transform="translate(-213.16 90.27) rotate(-37.03)"/><circle class="cls-1" cx="93.84" cy="420.53" r="5.17"/><circle class="cls-1" cx="76.84" cy="479.4" r="5.17"/><circle class="cls-1" cx="131.55" cy="101.83" r="5.17"/></g></g></svg>