<svg xmlns="http://www.w3.org/2000/svg" viewBox="0 0 386.75 51.88"><defs><style>.cls-1{fill:#fff;stroke:#000;stroke-miterlimit:10;stroke-width:2px;}</style></defs><title>win</title><g id="Ebene_2" data-name="Ebene 2"><g id="Ebene_1-2" data-name="Ebene 1"><path class="cls-1" d="M15.25,50.88V29.5H8.12V22.38H1V1H15.25V22.38H29.5V1H43.75V22.38H36.62V29.5H29.5V50.88Z"/><path class="cls-1" d="M58,50.88V43.75H50.88V22.38H58V15.25H93.62v7.13h7.13V43.75H93.62v7.13Zm7.12-7.13H86.5V22.38H65.12Z"/><path class="cls-1" d="M115,50.88V43.75h-7.12V15.25h14.24v28.5H143.5V15.25h14.25V50.88Z"/><path class="cls-1" d="M236.12,43.75h7.13v7.13H229V43.75h-7.12V15.25h14.24Zm14.26-28.5v28.5h-7.13V15.25Zm21.37,0v28.5h-7.13v7.13H250.38V43.75h7.12V15.25Z"/><path class="cls-1" d="M286,50.88V43.75h14.25V22.38h-7.13V15.25H314.5v28.5h14.25v7.13ZM300.25,8.12V1H314.5V8.12Z"/><path class="cls-1" d="M335.88,50.88V15.25h42.74v7.13h7.13v28.5H371.5V22.38H350.12v28.5Z"/></g></g></svg>