<?xml version="1.0" standalone="no"?>
<!DOCTYPE svg PUBLIC "-//W3C//DTD SVG 20010904//EN"
 "http://www.w3.org/TR/2001/REC-SVG-20010904/DTD/svg10.dtd">
<svg version="1.0" xmlns="http://www.w3.org/2000/svg"
 width="720.000000pt" height="720.000000pt" viewBox="0 0 720.000000 720.000000"
 preserveAspectRatio="xMidYMid meet">
<metadata>
Created by potrace 1.11, written by Peter Selinger 2001-2013
</metadata>
<g transform="translate(0.000000,720.000000) scale(0.100000,-0.100000)"
fill="#000000" stroke="none">
<path d="M1778 7195 c-2 -2 -19 -6 -39 -9 -247 -39 -484 -193 -668 -434 -33
-44 -61 -83 -61 -86 0 -3 -14 -25 -31 -50 -61 -91 -143 -292 -164 -401 -36
-186 -23 -357 41 -555 3 -8 5 -16 5 -17 0 -11 99 -197 122 -228 62 -86 105
-138 144 -177 l47 -48 -74 -1 c-41 0 -193 0 -337 0 l-263 0 0 -834 c0 -787 1
-834 17 -834 10 0 42 -1 72 -1 29 -1 55 1 58 3 2 3 20 1 39 -3 20 -5 34 -4 34
2 0 5 4 7 9 3 5 -3 31 -5 58 -5 26 0 56 0 66 0 42 0 56 0 119 1 37 0 72 -2 77
-5 5 -4 12 -3 15 2 3 5 19 7 36 4 l30 -4 0 -1759 0 -1759 2470 0 2470 0 0
1759 c0 1399 3 1760 13 1764 6 2 27 0 45 -4 19 -4 32 -3 32 3 0 5 4 7 9 3 5
-3 31 -5 58 -5 48 0 72 0 96 0 6 -1 53 0 103 1 50 1 96 -1 101 -4 5 -3 15 -2
22 3 8 4 27 4 42 0 16 -5 29 -5 29 -2 0 4 18 6 40 4 l40 -4 0 835 0 835 -397
1 c-219 0 -408 0 -421 1 -21 0 -19 4 19 43 24 23 69 78 101 122 32 44 62 85
67 91 11 14 85 156 88 169 1 6 11 35 23 65 12 30 23 63 25 73 2 10 6 26 9 35
40 136 24 392 -36 565 -33 95 -133 297 -157 317 -9 8 -51 68 -51 74 0 7 -58
73 -131 148 -123 128 -305 237 -469 279 -66 18 -113 23 -210 23 -69 0 -141 -3
-160 -7 -78 -15 -93 -18 -138 -33 -55 -17 -195 -76 -202 -84 -3 -3 -18 -12
-35 -20 -51 -26 -177 -120 -260 -194 -69 -61 -164 -163 -260 -281 -39 -47
-145 -204 -145 -214 0 -5 -7 -14 -15 -21 -24 -20 -172 -298 -236 -442 -22 -51
-44 -102 -49 -113 -37 -82 -61 -141 -64 -160 -2 -12 -9 -31 -15 -41 -6 -11
-23 -55 -38 -98 -15 -44 -29 -73 -31 -65 -4 17 -21 57 -33 81 -5 10 -9 24 -9
32 0 8 -12 43 -26 78 -14 35 -37 90 -51 123 -13 33 -28 68 -34 77 -5 10 -9 25
-9 33 0 8 -4 15 -10 15 -5 0 -10 7 -10 16 0 9 -6 28 -14 42 -8 15 -38 74 -66
132 -100 202 -255 447 -364 575 -28 33 -60 70 -71 83 -89 104 -240 235 -350
303 -39 24 -79 50 -90 57 -11 6 -27 15 -35 18 -8 3 -33 14 -55 25 -42 20 -124
48 -157 54 -11 2 -27 6 -36 9 -44 13 -86 18 -194 21 -64 2 -118 2 -120 0z
m270 -691 c118 -58 235 -159 344 -298 26 -33 57 -72 68 -86 64 -79 256 -430
241 -440 -8 -4 -498 -5 -621 -1 -19 1 -131 0 -248 -1 -116 -2 -212 0 -212 4 0
4 -7 5 -15 2 -8 -4 -15 -2 -15 2 0 5 -16 26 -35 47 -19 21 -51 72 -70 114 -31
63 -37 86 -37 146 -1 40 2 87 5 105 12 54 55 141 111 226 146 217 296 273 484
180z m3221 16 c100 -51 228 -209 287 -355 22 -56 28 -86 28 -150 0 -93 -18
-148 -78 -240 -58 -89 -67 -96 -137 -98 -33 -2 -63 1 -65 5 -2 3 -18 3 -34 -2
-18 -5 -32 -5 -36 1 -3 5 -11 6 -17 2 -17 -11 -146 -10 -139 1 3 5 0 6 -7 1
-17 -10 -242 -12 -248 -2 -2 4 -9 4 -15 0 -15 -9 -139 -10 -144 -1 -3 4 -12 4
-20 1 -9 -3 -83 -6 -165 -7 -120 -1 -149 2 -149 13 0 13 98 208 132 261 55 88
112 176 117 180 3 3 26 32 51 65 114 152 283 291 407 335 75 27 169 23 232
-10z"/>
</g>
</svg>
